<svg width="2048" height="2048" viewBox="0 0 2048 2048" fill="none" xmlns="http://www.w3.org/2000/svg">
<rect width="2048" height="2048" fill="#0B0B0C"/>
<path d="M558.487 1292.76V755.236L1024 486.473L1489.51 755.236V1292.76L1024 1561.53L558.487 1292.76ZM1424.51 1255.24V792.764L1024 561.528L623.487 792.764V1255.24L1024 1486.47L1424.51 1255.24Z" fill="url(#paint0_linear_1_3)"/>
<path d="M939.023 1117.27C941.205 1135.7 950.053 1150 965.568 1160.18C981.083 1170.36 1000.11 1175.45 1022.66 1175.45C1039.14 1175.45 1053.57 1172.79 1065.93 1167.45C1078.17 1162.12 1087.75 1154.79 1094.66 1145.45C1101.45 1136.12 1104.84 1125.52 1104.84 1113.64C1104.84 1103.7 1102.48 1095.15 1097.75 1088C1092.9 1080.97 1086.72 1075.09 1079.2 1070.36C1071.69 1065.76 1063.81 1061.94 1055.57 1058.91C1047.33 1056 1039.75 1053.64 1032.84 1051.82L995.023 1041.64C985.326 1039.09 974.538 1035.58 962.659 1031.09C950.659 1026.61 939.205 1020.48 928.295 1012.73C917.265 1005.09 908.174 995.273 901.023 983.273C893.871 971.273 890.295 956.545 890.295 939.091C890.295 918.97 895.568 900.788 906.114 884.545C916.538 868.303 931.811 855.394 951.932 845.818C971.932 836.242 996.235 831.455 1024.84 831.455C1051.51 831.455 1074.6 835.758 1094.11 844.364C1113.51 852.97 1128.78 864.97 1139.93 880.364C1150.96 895.758 1157.2 913.636 1158.66 934H1112.11C1110.9 919.939 1106.17 908.303 1097.93 899.091C1089.57 890 1079.02 883.212 1066.3 878.727C1053.45 874.364 1039.63 872.182 1024.84 872.182C1007.63 872.182 992.174 874.97 978.477 880.545C964.78 886.242 953.932 894.121 945.932 904.182C937.932 914.364 933.932 926.242 933.932 939.818C933.932 952.182 937.386 962.242 944.295 970C951.205 977.758 960.295 984.061 971.568 988.909C982.841 993.758 995.023 998 1008.11 1001.64L1053.93 1014.73C1083.02 1023.09 1106.05 1035.03 1123.02 1050.55C1139.99 1066.06 1148.48 1086.36 1148.48 1111.45C1148.48 1132.3 1142.84 1150.48 1131.57 1166C1120.17 1181.64 1104.9 1193.76 1085.75 1202.36C1066.48 1211.09 1044.96 1215.45 1021.2 1215.45C997.205 1215.45 975.871 1211.15 957.205 1202.55C938.538 1194.06 923.75 1182.42 912.841 1167.64C901.811 1152.85 895.992 1136.06 895.386 1117.27H939.023Z" fill="#7B2FF7"/>
<path d="M930.727 939.023C912.303 941.205 898 950.053 887.818 965.568C877.636 981.083 872.545 1000.11 872.545 1022.66C872.545 1039.14 875.212 1053.57 880.545 1065.93C885.879 1078.17 893.212 1087.75 902.545 1094.66C911.879 1101.45 922.485 1104.84 934.364 1104.84C944.303 1104.84 952.848 1102.48 960 1097.75C967.03 1092.9 972.909 1086.72 977.636 1079.2C982.242 1071.69 986.061 1063.81 989.091 1055.57C992 1047.33 994.364 1039.75 996.182 1032.84L1006.36 995.023C1008.91 985.326 1012.42 974.538 1016.91 962.659C1021.39 950.659 1027.52 939.205 1035.27 928.295C1042.91 917.265 1052.73 908.174 1064.73 901.023C1076.73 893.871 1091.45 890.295 1108.91 890.295C1129.03 890.295 1147.21 895.568 1163.45 906.114C1179.7 916.538 1192.61 931.811 1202.18 951.932C1211.76 971.932 1216.55 996.235 1216.55 1024.84C1216.55 1051.51 1212.24 1074.6 1203.64 1094.11C1195.03 1113.51 1183.03 1128.78 1167.64 1139.93C1152.24 1150.96 1134.36 1157.2 1114 1158.66V1112.11C1128.06 1110.9 1139.7 1106.17 1148.91 1097.93C1158 1089.57 1164.79 1079.02 1169.27 1066.3C1173.64 1053.45 1175.82 1039.63 1175.82 1024.84C1175.82 1007.63 1173.03 992.174 1167.45 978.477C1161.76 964.78 1153.88 953.932 1143.82 945.932C1133.64 937.932 1121.76 933.932 1108.18 933.932C1095.82 933.932 1085.76 937.386 1078 944.295C1070.24 951.205 1063.94 960.295 1059.09 971.568C1054.24 982.841 1050 995.023 1046.36 1008.11L1033.27 1053.93C1024.91 1083.02 1012.97 1106.05 997.455 1123.02C981.939 1139.99 961.636 1148.48 936.545 1148.48C915.697 1148.48 897.515 1142.84 882 1131.57C866.364 1120.17 854.242 1104.9 845.636 1085.75C836.909 1066.48 832.545 1044.96 832.545 1021.2C832.545 997.205 836.848 975.871 845.455 957.205C853.939 938.538 865.576 923.75 880.364 912.841C895.151 901.811 911.939 895.992 930.727 895.386V939.023Z" fill="#7B2FF7"/>
<rect x="1489" y="1044" width="35" height="298" transform="rotate(-90 1489 1044)" fill="url(#paint1_linear_1_3)"/>
<rect x="259" y="1045" width="35" height="300" transform="rotate(-90 259 1045)" fill="url(#paint2_linear_1_3)"/>
<rect x="1489" y="944" width="35" height="298" transform="rotate(-90 1489 944)" fill="url(#paint3_linear_1_3)"/>
<rect x="259" y="944" width="35" height="300" transform="rotate(-90 259 944)" fill="url(#paint4_linear_1_3)"/>
<rect x="1489" y="1146" width="35" height="298" transform="rotate(-90 1489 1146)" fill="url(#paint5_linear_1_3)"/>
<rect x="261" y="1146" width="35" height="298" transform="rotate(-90 261 1146)" fill="url(#paint6_linear_1_3)"/>
<defs>
<linearGradient id="paint0_linear_1_3" x1="1024" y1="1524" x2="1024" y2="524" gradientUnits="userSpaceOnUse">
<stop stop-color="#8E2DE2"/>
<stop offset="1" stop-color="#4A00E0"/>
</linearGradient>
<linearGradient id="paint1_linear_1_3" x1="1506.5" y1="1342" x2="1506.5" y2="1044" gradientUnits="userSpaceOnUse">
<stop stop-color="#8E2DE2"/>
<stop offset="1" stop-color="#4A00E0"/>
</linearGradient>
<linearGradient id="paint2_linear_1_3" x1="276.5" y1="1345" x2="276.5" y2="1045" gradientUnits="userSpaceOnUse">
<stop stop-color="#4A00E0"/>
<stop offset="1" stop-color="#8E2DE2"/>
</linearGradient>
<linearGradient id="paint3_linear_1_3" x1="1506.5" y1="944" x2="1506.5" y2="1242" gradientUnits="userSpaceOnUse">
<stop stop-color="#4A00E0"/>
<stop offset="1" stop-color="#8E2DE2"/>
</linearGradient>
<linearGradient id="paint4_linear_1_3" x1="276.5" y1="1244" x2="276.5" y2="944" gradientUnits="userSpaceOnUse">
<stop stop-color="#4A00E0"/>
<stop offset="1" stop-color="#8E2DE2"/>
</linearGradient>
<linearGradient id="paint5_linear_1_3" x1="1506.5" y1="1146" x2="1506.5" y2="1444" gradientUnits="userSpaceOnUse">
<stop stop-color="#4A00E0"/>
<stop offset="1" stop-color="#8E2DE2"/>
</linearGradient>
<linearGradient id="paint6_linear_1_3" x1="278.5" y1="1444" x2="278.5" y2="1146" gradientUnits="userSpaceOnUse">
<stop stop-color="#4A00E0"/>
<stop offset="1" stop-color="#8E2DE2"/>
</linearGradient>
</defs>
</svg>
